<svg id="グループ_1259" data-name="グループ 1259" xmlns="http://www.w3.org/2000/svg" width="240.11" height="77.428" viewBox="0 0 240.11 77.428">
  <g id="グループ_446" data-name="グループ 446" transform="translate(48.27 65.185)">
    <path id="パス_5262" data-name="パス 5262" d="M811.918,756.638v.672h-3.749v9.684h-1.742V757.31h-3.748v-.672Z" transform="translate(-802.679 -754.922)"/>
    <path id="パス_5263" data-name="パス 5263" d="M819.549,760.012h.243l.209,1.633a3.074,3.074,0,0,1,.468-.656,3.4,3.4,0,0,1,.623-.512,2.749,2.749,0,0,1,.719-.342,2.441,2.441,0,0,1,.768-.124,2.4,2.4,0,0,1,.69.1,2.15,2.15,0,0,1,.638.294l-.5,1.334a1.617,1.617,0,0,0-.677-.44,1.53,1.53,0,0,0-.367-.073c-.127-.01-.251-.015-.378-.015a2.025,2.025,0,0,0-.582.082,2.253,2.253,0,0,0-.543.253,2.372,2.372,0,0,0-.476.429,2.914,2.914,0,0,0-.383.615v5.568h-1.584v-7.709Z" transform="translate(-808.119 -756.088)"/>
    <path id="パス_5264" data-name="パス 5264" d="M832.184,768.33a4.336,4.336,0,0,1-1.7-.32,4.136,4.136,0,0,1-1.334-.869,3.985,3.985,0,0,1-1.2-2.869,4.329,4.329,0,0,1,.318-1.659,4.141,4.141,0,0,1,.879-1.355,4,4,0,0,1,1.334-.91,4.252,4.252,0,0,1,1.7-.336,4.57,4.57,0,0,1,1.682.3,4.253,4.253,0,0,1,1.332.837,3.823,3.823,0,0,1,.879,1.246,3.772,3.772,0,0,1,.315,1.536,4.623,4.623,0,0,1-.315,1.706,4.364,4.364,0,0,1-.879,1.4,4.185,4.185,0,0,1-1.332.946A4.026,4.026,0,0,1,832.184,768.33Zm.3-.584a1.612,1.612,0,0,0,.858-.243,2.246,2.246,0,0,0,.673-.651,3.291,3.291,0,0,0,.436-.951,4.081,4.081,0,0,0,.155-1.137,8.46,8.46,0,0,0-.147-1.623,4.135,4.135,0,0,0-.483-1.324,2.559,2.559,0,0,0-.876-.884,2.488,2.488,0,0,0-1.311-.326,1.441,1.441,0,0,0-.773.233,2.329,2.329,0,0,0-.662.626,3.422,3.422,0,0,0-.455.936,3.652,3.652,0,0,0-.173,1.137,7.081,7.081,0,0,0,.183,1.639,4.38,4.38,0,0,0,.54,1.333,2.824,2.824,0,0,0,.866.9A2.086,2.086,0,0,0,832.489,767.746Z" transform="translate(-811.417 -756.088)"/>
    <path id="パス_5265" data-name="パス 5265" d="M845.893,760.241v5.692a1.2,1.2,0,0,0,.137.563,1.4,1.4,0,0,0,.38.46,1.959,1.959,0,0,0,1.241.424,1.455,1.455,0,0,0,.5-.1,2.7,2.7,0,0,0,.528-.274,3.247,3.247,0,0,0,.481-.414,2.994,2.994,0,0,0,.377-.506v-5.842h1.577v8H849.54v-1.5a3.216,3.216,0,0,1-.527.646,3.821,3.821,0,0,1-.682.533,4.148,4.148,0,0,1-.758.362,2.328,2.328,0,0,1-.742.129,2.422,2.422,0,0,1-.985-.2,2.537,2.537,0,0,1-.8-.528,2.459,2.459,0,0,1-.543-.791,2.325,2.325,0,0,1-.2-.961v-5.692Z" transform="translate(-817.066 -756.167)"/>
    <path id="パス_5266" data-name="パス 5266" d="M859.016,754.459l1.125-.444h.468V759.6a2.769,2.769,0,0,1,.512-.641,3.991,3.991,0,0,1,.688-.527,3.712,3.712,0,0,1,.773-.357,2.485,2.485,0,0,1,.77-.134,2.946,2.946,0,0,1,1.28.284,3.057,3.057,0,0,1,1.008.766,3.527,3.527,0,0,1,.66,1.127,3.971,3.971,0,0,1,.238,1.381,4.954,4.954,0,0,1-.346,1.856,4.81,4.81,0,0,1-.954,1.515,4.588,4.588,0,0,1-1.417,1.018,4.1,4.1,0,0,1-1.734.372,5.881,5.881,0,0,1-1.675-.232,4.119,4.119,0,0,1-1.394-.714Zm1.593,10.325c.1.093.207.191.326.289a2.648,2.648,0,0,0,.393.269,2.472,2.472,0,0,0,.489.2,2.392,2.392,0,0,0,.6.073,1.972,1.972,0,0,0,1.008-.269,2.435,2.435,0,0,0,.775-.75,3.768,3.768,0,0,0,.5-1.142,5.617,5.617,0,0,0,.176-1.442,3.333,3.333,0,0,0-.184-1.112,3,3,0,0,0-.5-.905,2.358,2.358,0,0,0-.742-.61,1.909,1.909,0,0,0-.909-.223,2.141,2.141,0,0,0-.559.078,2.906,2.906,0,0,0-.542.212,2.65,2.65,0,0,0-.476.31,1.752,1.752,0,0,0-.359.378Z" transform="translate(-822.152 -754.015)"/>
    <path id="パス_5267" data-name="パス 5267" d="M875.565,766.087h-1.592V754.465l1.132-.45h.46Z" transform="translate(-827.322 -754.015)"/>
    <path id="パス_5268" data-name="パス 5268" d="M883.788,768.33a3.8,3.8,0,0,1-1.528-.3,3.914,3.914,0,0,1-1.246-.827,3.846,3.846,0,0,1-.838-1.23,3.7,3.7,0,0,1-.31-1.5,5.443,5.443,0,0,1,.282-1.773,4.29,4.29,0,0,1,.8-1.411,3.67,3.67,0,0,1,2.852-1.266,3.638,3.638,0,0,1,1.437.279,3.582,3.582,0,0,1,1.127.745,3.332,3.332,0,0,1,.734,1.071,3.186,3.186,0,0,1,.264,1.277H881.4a5.1,5.1,0,0,0,.207,1.489,3.755,3.755,0,0,0,.581,1.189,2.812,2.812,0,0,0,.889.781,2.346,2.346,0,0,0,1.133.279,3.054,3.054,0,0,0,.993-.166,3.431,3.431,0,0,0,.863-.445,3.028,3.028,0,0,0,.66-.626,2.176,2.176,0,0,0,.382-.724l.46.2a3.72,3.72,0,0,1-.553,1.158,4.606,4.606,0,0,1-.894.941,4.288,4.288,0,0,1-1.114.636A3.344,3.344,0,0,1,883.788,768.33Zm1.577-5.589a2.143,2.143,0,0,0-.16-.842,2.05,2.05,0,0,0-1.1-1.127,2.008,2.008,0,0,0-.8-.166,1.59,1.59,0,0,0-.688.16,2.028,2.028,0,0,0-.587.445,2.481,2.481,0,0,0-.423.677,2.517,2.517,0,0,0-.2.843Z" transform="translate(-829.36 -756.088)"/>
    <path id="パス_5269" data-name="パス 5269" d="M898.507,766.064v.915h-3.8v-.915Z" transform="translate(-834.489 -758.18)"/>
    <path id="パス_5270" data-name="パス 5270" d="M905.991,754.6a.846.846,0,0,0-.473.139,1.27,1.27,0,0,0-.367.357,1.861,1.861,0,0,0-.235.512,2.21,2.21,0,0,0-.081.595v1.882h2.13v.682h-2.13v7.315h-1.595v-7.315h-1.662v-.682h1.662v-.92a3.24,3.24,0,0,1,.235-1.231,3.162,3.162,0,0,1,.636-1,3.03,3.03,0,0,1,.946-.677,2.75,2.75,0,0,1,1.158-.248,3.055,3.055,0,0,1,.817.109,3.091,3.091,0,0,1,.732.3,2.6,2.6,0,0,1,.6.5,2.33,2.33,0,0,1,.416.652l-1.156.832c-.057-.207-.124-.419-.2-.631a2.824,2.824,0,0,0-.3-.584,1.476,1.476,0,0,0-.452-.424A1.316,1.316,0,0,0,905.991,754.6Z" transform="translate(-836.865 -754.015)"/>
    <path id="パス_5271" data-name="パス 5271" d="M913.215,760.012h.243l.209,1.633a3.022,3.022,0,0,1,.468-.656,3.346,3.346,0,0,1,.623-.512,2.745,2.745,0,0,1,.718-.342,2.441,2.441,0,0,1,.768-.124,2.39,2.39,0,0,1,.69.1,2.147,2.147,0,0,1,.639.294l-.5,1.334a1.606,1.606,0,0,0-.677-.44,1.523,1.523,0,0,0-.367-.073c-.126-.01-.251-.015-.377-.015a2.02,2.02,0,0,0-.582.082,2.246,2.246,0,0,0-.543.253,2.372,2.372,0,0,0-.476.429,2.883,2.883,0,0,0-.382.615v5.568h-1.585v-7.709Z" transform="translate(-840.496 -756.088)"/>
    <path id="パス_5272" data-name="パス 5272" d="M925.743,768.33a3.794,3.794,0,0,1-1.528-.3,3.914,3.914,0,0,1-1.246-.827,3.846,3.846,0,0,1-.838-1.23,3.7,3.7,0,0,1-.31-1.5,5.459,5.459,0,0,1,.281-1.773,4.3,4.3,0,0,1,.8-1.411,3.667,3.667,0,0,1,2.852-1.266,3.639,3.639,0,0,1,1.437.279,3.573,3.573,0,0,1,1.127.745,3.324,3.324,0,0,1,.734,1.071,3.186,3.186,0,0,1,.264,1.277h-5.958a5.1,5.1,0,0,0,.207,1.489,3.755,3.755,0,0,0,.581,1.189,2.813,2.813,0,0,0,.889.781,2.346,2.346,0,0,0,1.133.279,3.053,3.053,0,0,0,.993-.166,3.437,3.437,0,0,0,.863-.445,3.015,3.015,0,0,0,.659-.626,2.166,2.166,0,0,0,.383-.724l.46.2a3.736,3.736,0,0,1-.553,1.158,4.609,4.609,0,0,1-.894.941,4.288,4.288,0,0,1-1.114.636A3.345,3.345,0,0,1,925.743,768.33Zm1.577-5.589a2.156,2.156,0,0,0-.16-.842,2.05,2.05,0,0,0-1.1-1.127,2.008,2.008,0,0,0-.8-.166,1.59,1.59,0,0,0-.688.16,2.023,2.023,0,0,0-.587.445,2.472,2.472,0,0,0-.423.677,2.517,2.517,0,0,0-.2.843Z" transform="translate(-843.862 -756.088)"/>
    <path id="パス_5273" data-name="パス 5273" d="M940.138,768.33a3.792,3.792,0,0,1-1.527-.3,3.926,3.926,0,0,1-1.246-.827,3.858,3.858,0,0,1-.838-1.23,3.7,3.7,0,0,1-.31-1.5,5.463,5.463,0,0,1,.282-1.773,4.278,4.278,0,0,1,.8-1.411,3.667,3.667,0,0,1,2.851-1.266,3.641,3.641,0,0,1,1.438.279,3.581,3.581,0,0,1,1.127.745,3.335,3.335,0,0,1,.734,1.071,3.184,3.184,0,0,1,.264,1.277h-5.958a5.121,5.121,0,0,0,.207,1.489,3.753,3.753,0,0,0,.582,1.189,2.8,2.8,0,0,0,.889.781,2.341,2.341,0,0,0,1.132.279,3.051,3.051,0,0,0,.993-.166,3.441,3.441,0,0,0,.864-.445,3.033,3.033,0,0,0,.659-.626,2.182,2.182,0,0,0,.383-.724l.46.2a3.727,3.727,0,0,1-.554,1.158,4.623,4.623,0,0,1-.894.941,4.31,4.31,0,0,1-1.114.636A3.35,3.35,0,0,1,940.138,768.33Zm1.577-5.589a2.145,2.145,0,0,0-.16-.842,2.044,2.044,0,0,0-1.1-1.127,2.006,2.006,0,0,0-.8-.166,1.588,1.588,0,0,0-.687.16,2.025,2.025,0,0,0-.587.445,2.477,2.477,0,0,0-.424.677,2.5,2.5,0,0,0-.2.843Z" transform="translate(-848.837 -756.088)"/>
    <path id="パス_5274" data-name="パス 5274" d="M957,756.638l3.092,7.874,2.717-7.109,2.8,7.14,3.022-7.905h.845L965.5,767.081h-.517l-2.562-6.462-2.45,6.462h-.594l-4.115-10.443Z" transform="translate(-855.419 -754.922)"/>
    <path id="パス_5275" data-name="パス 5275" d="M981.9,768.33a4.339,4.339,0,0,1-1.7-.32,4.136,4.136,0,0,1-1.333-.869,3.984,3.984,0,0,1-1.2-2.869,4.33,4.33,0,0,1,.318-1.659,4.142,4.142,0,0,1,.879-1.355,4,4,0,0,1,1.333-.91,4.255,4.255,0,0,1,1.7-.336,4.574,4.574,0,0,1,1.683.3,4.258,4.258,0,0,1,1.331.837,3.819,3.819,0,0,1,.879,1.246,3.769,3.769,0,0,1,.315,1.536,4.62,4.62,0,0,1-.315,1.706,4.36,4.36,0,0,1-.879,1.4,4.19,4.19,0,0,1-1.331.946A4.029,4.029,0,0,1,981.9,768.33Zm.305-.584a1.614,1.614,0,0,0,.858-.243,2.243,2.243,0,0,0,.672-.651,3.29,3.29,0,0,0,.437-.951,4.088,4.088,0,0,0,.155-1.137,8.465,8.465,0,0,0-.147-1.623,4.151,4.151,0,0,0-.483-1.324,2.565,2.565,0,0,0-.877-.884,2.487,2.487,0,0,0-1.311-.326,1.444,1.444,0,0,0-.773.233,2.328,2.328,0,0,0-.662.626,3.441,3.441,0,0,0-.455.936,3.634,3.634,0,0,0-.173,1.137,7.081,7.081,0,0,0,.183,1.639,4.393,4.393,0,0,0,.54,1.333,2.825,2.825,0,0,0,.866.9A2.084,2.084,0,0,0,982.206,767.746Z" transform="translate(-863.168 -756.088)"/>
    <path id="パス_5276" data-name="パス 5276" d="M995.15,760.012h.243l.209,1.633a3.021,3.021,0,0,1,.468-.656,3.351,3.351,0,0,1,.623-.512,2.755,2.755,0,0,1,.719-.342,2.44,2.44,0,0,1,.767-.124,2.391,2.391,0,0,1,.69.1,2.147,2.147,0,0,1,.639.294l-.5,1.334a1.393,1.393,0,0,0-.328-.274,1.419,1.419,0,0,0-.349-.166,1.524,1.524,0,0,0-.366-.073c-.127-.01-.251-.015-.378-.015a2.024,2.024,0,0,0-.582.082,2.246,2.246,0,0,0-.543.253,2.409,2.409,0,0,0-.476.429,2.9,2.9,0,0,0-.382.615v5.568h-1.585v-7.709Z" transform="translate(-868.817 -756.088)"/>
    <path id="パス_5277" data-name="パス 5277" d="M1006.174,766.087h-1.592V754.465l1.132-.45h.46Z" transform="translate(-872.469 -754.015)"/>
    <path id="パス_5278" data-name="パス 5278" d="M1016.5,765.311a3.921,3.921,0,0,1-.594.4,4.5,4.5,0,0,1-.667.294,4.346,4.346,0,0,1-.7.186,3.5,3.5,0,0,1-.685.067,2.779,2.779,0,0,1-1.318-.325,3.538,3.538,0,0,1-1.067-.884,4.3,4.3,0,0,1-.724-1.293,4.593,4.593,0,0,1-.266-1.556,3.9,3.9,0,0,1,.333-1.577,4.587,4.587,0,0,1,.9-1.365,4.392,4.392,0,0,1,1.332-.956,3.781,3.781,0,0,1,1.628-.362,2.389,2.389,0,0,1,1.019.207,3.342,3.342,0,0,1,.809.537v-4.219l1.117-.45h.46v12.072H1016.5Zm0-4.673a2.074,2.074,0,0,0-.175-.859,2.257,2.257,0,0,0-.458-.661,2,2,0,0,0-.635-.429,1.783,1.783,0,0,0-.717-.155,1.738,1.738,0,0,0-.889.238,2.267,2.267,0,0,0-.724.656,3.443,3.443,0,0,0-.486,1.019,4.351,4.351,0,0,0-.181,1.3,5.012,5.012,0,0,0,.2,1.432,4.04,4.04,0,0,0,.535,1.158,2.688,2.688,0,0,0,.8.781,1.8,1.8,0,0,0,.979.285,1.9,1.9,0,0,0,.5-.068,2.242,2.242,0,0,0,.481-.181,2.63,2.63,0,0,0,.424-.258,2.224,2.224,0,0,0,.349-.315Z" transform="translate(-874.506 -754.015)"/>
  </g>
  <g id="グループ_447" data-name="グループ 447">
    <path id="パス_5279" data-name="パス 5279" d="M807.527,669.109c-13.322,0-17.476,8.771-17.674,16.949.2,8.178,4.353,16.949,17.674,16.949S825,694.236,825.2,686.058C825,677.88,820.849,669.109,807.527,669.109Zm-.005,30.271c-6.4,0-8.182-8.177-8.182-13.322s1.781-13.322,8.182-13.322,8.183,8.177,8.183,13.322S813.923,699.38,807.522,699.38Z" transform="translate(-749.557 -659.037)"/>
    <path id="パス_5280" data-name="パス 5280" d="M934.444,669.109c-13.322,0-17.476,8.771-17.674,16.949.2,8.178,4.353,16.949,17.674,16.949s17.477-8.771,17.674-16.949C951.921,677.88,947.766,669.109,934.444,669.109Zm-.005,30.271c-6.4,0-8.182-8.177-8.182-13.322s1.781-13.322,8.182-13.322,8.183,8.177,8.183,13.322S940.841,699.38,934.439,699.38Z" transform="translate(-793.983 -659.037)"/>
    <path id="パス_5281" data-name="パス 5281" d="M1060.565,669.109c-13.322,0-17.477,8.771-17.674,16.949.2,8.178,4.352,16.949,17.674,16.949s17.477-8.771,17.675-16.949C1078.042,677.88,1073.887,669.109,1060.565,669.109Zm0,30.271c-6.4,0-8.183-8.177-8.183-13.322s1.782-13.322,8.183-13.322,8.182,8.177,8.182,13.322S1066.962,699.38,1060.56,699.38Z" transform="translate(-838.13 -659.037)"/>
    <path id="パス_5282" data-name="パス 5282" d="M754.07,665.76c-3.032-1.745-5.578-1.972-8.712-1.972a17.975,17.975,0,0,0-6.072,1.085l-.743.288c-.5.2-1.021.05-1.021-.532V654.522a.8.8,0,0,0-1.136-.733l-8.056,3.647a.8.8,0,0,0-.473.733v39.767a.989.989,0,0,0,1.108.982.68.68,0,0,0,.18-.052L736.6,695.8a.925.925,0,0,1,.448-.073,1.032,1.032,0,0,1,.425.146,13.888,13.888,0,0,0,7.562,1.809c12.6,0,16.782-10.448,16.782-17.24C761.814,675.282,760.073,669.214,754.07,665.76Zm-9.3,27.39c-6.1,0-7.8-7.624-7.8-12.42s1.7-12.42,7.8-12.42,7.8,7.624,7.8,12.42S750.876,693.15,744.772,693.15Z" transform="translate(-727.856 -653.716)"/>
    <path id="パス_5283" data-name="パス 5283" d="M871.3,667.826a21.233,21.233,0,0,0-6.4,1.527c-.745.315-1.259.338-1.259-.664v-1.807a.8.8,0,0,0-1.137-.733l-8.056,3.647a.8.8,0,0,0-.472.732V702.26a.989.989,0,0,0,1.107.982.668.668,0,0,0,.18-.052l7.839-3.225a1,1,0,0,0,.539-.9V683.107c0-7.482,4.136-10.7,8.574-10.7a6.722,6.722,0,0,1,6.54,6.942.257.257,0,0,0,.026.056c.006.193.009.395.009.607V702.26a.989.989,0,0,0,1.107.982.668.668,0,0,0,.18-.052l7.839-3.225a1,1,0,0,0,.538-.9v-18.86l-.01,0C888.385,673.83,882.432,667.046,871.3,667.826Z" transform="translate(-772.001 -657.989)"/>
    <path id="パス_5284" data-name="パス 5284" d="M1007.107,665.76c-3.032-1.745-5.578-1.972-8.712-1.972a17.968,17.968,0,0,0-6.072,1.085c-.342.133-.744.288-.744.288-.5.2-1.021.05-1.021-.532V654.522a.8.8,0,0,0-1.136-.733l-8.056,3.647a.8.8,0,0,0-.472.733v39.767a.989.989,0,0,0,1.107.982.667.667,0,0,0,.18-.052l7.454-3.068a.927.927,0,0,1,.448-.073,1.035,1.035,0,0,1,.425.146,13.886,13.886,0,0,0,7.561,1.809c12.6,0,16.782-10.448,16.782-17.24C1014.851,675.282,1013.11,669.214,1007.107,665.76Zm-9.3,27.39c-6.1,0-7.8-7.624-7.8-12.42s1.7-12.42,7.8-12.42,7.8,7.624,7.8,12.42S1003.913,693.15,997.809,693.15Z" transform="translate(-816.421 -653.716)"/>
  </g>
</svg>
